# xmcd
#
# Track frame offsets:
#	150
#	17360
#	30225
#	48237
#	66255
#	84085
#
# Disc length: 1360 seconds
#
# Revision: 1
# Processed by: cddbd v1.5PL3 Copyright (c) Steve Scherf et al.
# Submitted via: EasyCDDAExtractor 6.2.0.3
#
DISCID=34054e06
DTITLE=Camp Lo - Luchini aka (This Is It)
DYEAR=1996
DGENRE=Hip-Hop
TTITLE0=Luchini aka (This Is It)
TTITLE1=Swing ft Ish aka Butterfly
TTITLE2=Luchini aka (This Is It) Instrumental
TTITLE3=Coolie High
TTITLE4=Coolie High (Red Handed's Tapemaster Remix)
TTITLE5=Coolie High (Instrumental)
EXTD=
EXTT0=
EXTT1=
EXTT2=
EXTT3=
EXTT4=
EXTT5=
PLAYORDER=
